<?xml version="1.0" encoding="UTF-8" standalone="no" ?>
<!DOCTYPE svg PUBLIC "-//W3C//DTD SVG 1.1//EN" "http://www.w3.org/Graphics/SVG/1.1/DTD/svg11.dtd">
<svg xmlns="http://www.w3.org/2000/svg" xmlns:xlink="http://www.w3.org/1999/xlink" version="1.1" width="512" height="512" viewBox="0 0 512 512" xml:space="preserve">
<desc>Created with Fabric.js 4.6.0</desc>
<defs>
</defs>
<g transform="matrix(1 0 0 1 255.69 256.31)" id="ouPq9uZu61Dj8UCEMnp3c"  >
<path style="stroke: rgb(206,97,237); stroke-width: 0; stroke-dasharray: none; stroke-linecap: butt; stroke-dashoffset: 0; stroke-linejoin: miter; stroke-miterlimit: 4; fill: rgb(255,255,255); fill-rule: nonzero; opacity: 1;" vector-effect="non-scaling-stroke"  transform=" translate(-256, -256)" d="M 256.00001 0 C 397.31201999999996 0 512.00002 114.68801 512.00002 256.00001 C 512.00002 397.31201999999996 397.31200999999993 512.00002 256.00001 512.00002 C 114.68799999999999 512.00002 0 397.31200999999993 0 256.00001 C 0 114.68799999999999 114.68801 0 256.00001 0 z" stroke-linecap="round" />
</g>
<g transform="matrix(1 0 0 1 255.69 249.5)" id="S_nXHdNGKVIbY-hbrUJNr"  >
<path style="stroke: rgb(162,148,13); stroke-width: 0; stroke-dasharray: none; stroke-linecap: butt; stroke-dashoffset: 0; stroke-linejoin: miter; stroke-miterlimit: 4; fill: rgb(0,0,0); fill-rule: nonzero; opacity: 1;" vector-effect="non-scaling-stroke"  transform=" translate(-125, -112.17)" d="M 18.4149 74.7764 L 92.1837 74.7764 L 92.1837 0 L 230.4687 0 L 230.4687 202.56659 L 250 202.56659 L 250 224.33039 L 230.4688 224.33039 L 230.4688 224.33039 L 18.414999999999992 224.33039 L 18.414999999999992 224.33039 L -7.105427357601002e-15 224.33039 L -7.105427357601002e-15 202.56659 L 18.414999999999992 202.56659 z M 29.5762 106.0264 L 76.4512 106.0264 L 76.4512 102.1201 L 29.5762 102.1201 z M 29.5762 128.57019 L 76.4512 128.57019 L 76.4512 124.66389 L 29.5762 124.66389 z M 29.5762 151.67649 L 76.4512 151.67649 L 76.4512 147.77019 L 29.5762 147.77019 z M 29.5762 174.22529 L 76.4512 174.22529 L 76.4512 170.31899 L 29.5762 170.31899 z M 120.3312 106.4189 L 204.7062 106.4189 L 204.7062 102.1214 L 120.3312 102.1214 z M 120.7499 82.7939 L 205.1249 82.7939 L 205.1249 78.4964 L 120.7499 78.4964 z M 120.7499 61.3614 L 205.1249 61.3614 L 205.1249 57.063900000000004 L 120.7499 57.063900000000004 z M 120.4712 38.1776 L 204.70749999999998 38.1776 L 204.70749999999998 34.0426 L 120.47129999999999 34.0426 z M 125.0299 203.07289 L 198.4674 203.07289 L 198.4674 158.54158999999999 L 125.0299 158.54158999999999 z" stroke-linecap="round" />
</g>
</svg>