<?xml version="1.0" encoding="UTF-8" standalone="no" ?>
<!DOCTYPE svg PUBLIC "-//W3C//DTD SVG 1.1//EN" "http://www.w3.org/Graphics/SVG/1.1/DTD/svg11.dtd">
<svg xmlns="http://www.w3.org/2000/svg" xmlns:xlink="http://www.w3.org/1999/xlink" version="1.1" width="512" height="512" viewBox="0 0 512 512" xml:space="preserve">
<desc>Created with Fabric.js 4.6.0</desc>
<defs>
</defs>
<g transform="matrix(1 0 0 1 221.83 218.7)" id="pWtklgqZZ6D9kCzqVn2pc"  >
<path style="stroke: rgb(0,0,0); stroke-width: 1; stroke-dasharray: none; stroke-linecap: butt; stroke-dashoffset: 0; stroke-linejoin: miter; stroke-miterlimit: 4; fill: rgb(255,255,255); fill-opacity: 0; fill-rule: nonzero; opacity: 1;" vector-effect="non-scaling-stroke"  transform=" translate(0, 0)" d="M 0 0" stroke-linecap="round" />
</g>
<g transform="matrix(1 0 0 1 255.72 255.72)" id="W4FwMeTRQ-e9vVN9NxCzf"  >
<path style="stroke: rgb(169,133,18); stroke-width: 0; stroke-dasharray: none; stroke-linecap: butt; stroke-dashoffset: 0; stroke-linejoin: miter; stroke-miterlimit: 4; fill: rgb(255,255,255); fill-rule: nonzero; opacity: 1;" vector-effect="non-scaling-stroke"  transform=" translate(-256, -256)" d="M 256 0 C 397.312 0 512 114.688 512 256 C 512 397.312 397.312 512 256 512 C 114.68799999999999 512 0 397.312 0 256 C 0 114.68799999999999 114.688 0 256 0 z" stroke-linecap="round" />
</g>
<g transform="matrix(1 0 0 1 255.72 255.72)" id="LEaIV4iJeWF712AASxJcF"  >
<path style="stroke: rgb(139,17,43); stroke-width: 0; stroke-dasharray: none; stroke-linecap: butt; stroke-dashoffset: 0; stroke-linejoin: miter; stroke-miterlimit: 4; fill: rgb(0,0,0); fill-rule: nonzero; opacity: 1;" vector-effect="non-scaling-stroke"  transform=" translate(-125, -85.39)" d="M 0 16.56 C 0 12.398799999999998 1.5525 8.599999999999998 4.11 5.712499999999999 L 91.5888 93.19118 L 6.3075000000000045 167.32487 C 2.4675000000000047 164.32987 4.440892098500626e-15 159.65867 4.440892098500626e-15 154.41237 z M 16.37 0.19 L 125 0.19 L 125 0 L 233.63 0 C 237.7425 0 241.50119999999998 1.5175 244.3775 4.0212 L 125 123.39868000000001 L 5.724999999999994 4.123700000000014 C 8.587499999999995 1.6712000000000136 12.304999999999994 0.19120000000001358 16.369999999999994 0.19120000000001358 z M 250 16.37 L 250 154.41248000000002 C 250 158.75118 248.3125 162.69498000000002 245.5575 165.62368 L 160.1875 91.41369 L 245.97750000000002 5.623710000000003 C 248.48250000000002 8.498710000000003 249.99880000000002 12.257410000000004 249.99880000000002 16.371210000000005 z M 243.8862 167.17117 C 241.0799 169.42987 237.5137 170.78117 233.63 170.78117 L 16.368799999999993 170.78117 C 13.416299999999993 170.78117 10.646299999999993 169.99997 8.255099999999993 168.63247 L 93.1938 94.79628000000001 L 123.3975 124.99997000000002 L 123.3463 125.05117000000001 L 124.9475 126.65237000000002 L 158.5825 93.01738000000002 z" stroke-linecap="round" />
</g>
</svg>