<?xml version="1.0" encoding="UTF-8" standalone="no" ?>
<!DOCTYPE svg PUBLIC "-//W3C//DTD SVG 1.1//EN" "http://www.w3.org/Graphics/SVG/1.1/DTD/svg11.dtd">
<svg xmlns="http://www.w3.org/2000/svg" xmlns:xlink="http://www.w3.org/1999/xlink" version="1.1" width="512" height="512" viewBox="0 0 512 512" xml:space="preserve">
<desc>Created with Fabric.js 4.6.0</desc>
<defs>
</defs>
<g transform="matrix(1 0 0 1 254.99 256.28)" id="nCpUpvGUQCk_B47UeIoES"  >
<path style="stroke: rgb(179,83,28); stroke-width: 0; stroke-dasharray: none; stroke-linecap: butt; stroke-dashoffset: 0; stroke-linejoin: miter; stroke-miterlimit: 4; fill: rgb(255,255,255); fill-rule: nonzero; opacity: 1;" vector-effect="non-scaling-stroke"  transform=" translate(-256, -256)" d="M 255.99998 0 C 397.31197 0 511.99996 114.68799 511.99996 255.99998 C 511.99996 397.31197 397.31197 511.99996 255.99998 511.99996 C 114.68798999999999 511.99996 0 397.31197 0 255.99998 C 0 114.68798999999999 114.68799 0 255.99998 0 z" stroke-linecap="round" />
</g>
<g transform="matrix(1 0 0 1 254.99 255.17)" id="Nu2ICOzcFv2Jsso0TlNTf"  >
<path style="stroke: rgb(0,0,0); stroke-width: 1; stroke-dasharray: none; stroke-linecap: butt; stroke-dashoffset: 0; stroke-linejoin: miter; stroke-miterlimit: 4; fill: rgb(0,0,0); fill-rule: nonzero; opacity: 1;" vector-effect="non-scaling-stroke"  transform=" translate(-84.8, -125)" d="M 88.79377 246.64703 C 88.68507 246.93453 88.57257 247.16083 88.45877 247.32203 C 88.31507 247.52573 88.17257000000001 247.71573 88.03257 247.89203 C 87.89257 248.11583000000002 87.70757 248.38203000000001 87.48137000000001 248.64833000000002 C 87.27267000000002 248.96703000000002 87.06517000000001 249.28333 86.85887000000001 249.59833 C 87.09137000000001 249.24333000000001 87.30007 248.92583 87.48137000000001 248.64833000000002 C 86.88517000000002 249.35203 85.99886000000001 250.06083 84.88265000000001 249.99583 C 83.76514000000002 250.06083 82.88013000000001 249.35213000000002 82.28393000000001 248.64833000000002 C 82.46643000000002 248.92583000000002 82.67393000000001 249.24333000000001 82.90643000000001 249.59833 C 82.70023000000002 249.28333 82.49273000000001 248.96713 82.28393000000001 248.64833000000002 C 82.05773 248.38083 81.87273000000002 248.11453 81.73273000000002 247.89203 C 81.59273000000002 247.71583 81.45023000000002 247.52573 81.30653000000002 247.32203 C 81.19283000000003 247.16083 81.08153000000003 246.93453000000002 80.97153000000003 246.64703 C 39.35512000000003 183.10302000000001 19.34376000000003 143.81548 9.799990000000037 121.59531 C 8.828780000000037 119.6628 7.9312800000000365 117.6891 7.108770000000037 115.67529 C 2.537540000000037 106.23776000000001 0.000020000000037434518 95.81022 0.000020000000037434518 84.84899 C 0.000020000000037434518 76.88776 1.3387300000000375 69.20774 3.8225500000000374 61.98521 C 13.493820000000037 26.286390000000004 46.13777000000003 0 84.88296000000004 0 C 124.45186000000004 0 157.65581000000003 27.41259 166.52838000000003 64.27142 C 168.53460000000004 70.82144000000001 169.60710000000003 77.72267000000001 169.60710000000003 84.84899000000001 C 169.60710000000003 94.96532000000002 167.44588000000005 104.62656000000001 163.51955000000004 113.47409000000002 C 162.47454000000005 116.25410000000002 161.28703000000004 118.96411000000002 159.96582000000004 121.59532000000002 C 150.42075000000003 143.8154 130.41070000000005 183.10303000000002 88.79428000000004 246.64704 z M 32.22604 79.84637 C 32.22604 108.86896999999999 55.78112 132.42405 84.80374 132.42405 C 113.82636000000001 132.42405 137.38144 108.86896999999999 137.38144 79.84637 C 137.38144 50.823769999999996 113.82636 27.268689999999992 84.80374 27.268689999999992 C 55.78112 27.268689999999992 32.226040000000005 50.823769999999996 32.226040000000005 79.84637 z" stroke-linecap="round" />
</g>
</svg>