<?xml version="1.0" encoding="UTF-8" standalone="no" ?>
<!DOCTYPE svg PUBLIC "-//W3C//DTD SVG 1.1//EN" "http://www.w3.org/Graphics/SVG/1.1/DTD/svg11.dtd">
<svg xmlns="http://www.w3.org/2000/svg" xmlns:xlink="http://www.w3.org/1999/xlink" version="1.1" width="512" height="512" viewBox="0 0 512 512" xml:space="preserve">
<desc>Created with Fabric.js 4.6.0</desc>
<defs>
</defs>
<g transform="matrix(1 0 0 1 255.72 256.28)" id="euG4n_1jLmVD-yN58HNiZ"  >
<path style="stroke: rgb(105,161,78); stroke-width: 0; stroke-dasharray: none; stroke-linecap: butt; stroke-dashoffset: 0; stroke-linejoin: miter; stroke-miterlimit: 4; fill: rgb(255,255,255); fill-rule: nonzero; opacity: 1;" vector-effect="non-scaling-stroke"  transform=" translate(-256, -256)" d="M 255.99999 0 C 397.31198 0 511.99998 114.688 511.99998 255.99999 C 511.99998 397.31198 397.31198 511.99998 255.99999 511.99998 C 114.68799999999999 511.99998 0 397.31198 0 255.99999 C 0 114.68799999999999 114.688 0 255.99999 0 z" stroke-linecap="round" />
</g>
<g transform="matrix(1 0 0 1 255.72 256.28)" id="kDTiCYtcVtMxxRSOebm1r"  >
<path style="stroke: rgb(185,31,31); stroke-width: 0; stroke-dasharray: none; stroke-linecap: butt; stroke-dashoffset: 0; stroke-linejoin: miter; stroke-miterlimit: 4; fill: rgb(0,0,0); fill-rule: nonzero; opacity: 1;" vector-effect="non-scaling-stroke"  transform=" translate(-100.18, -125)" d="M 79.15113 74.20968 L 74.87361999999999 77.40466 L 72.98111999999999 78.88335000000001 C 72.52362 79.24085000000001 72.05111999999998 79.57085000000001 71.56992 79.87204000000001 L 62.603699999999996 86.56819000000002 C 62.603699999999996 86.56819000000002 56.711189999999995 89.99817000000002 57.98249 97.50431000000002 C 61.346199999999996 107.14424000000002 72.81002 126.04411000000002 82.69754 141.46901000000003 L 82.69004000000001 141.47401000000002 C 93.33756000000001 155.88141000000002 106.20258000000001 172.37130000000002 113.72130000000001 178.73495000000003 C 120.27381000000001 182.61242000000001 125.58752000000001 178.33995000000002 125.58752000000001 178.33995000000002 L 135.05254000000002 172.36879000000002 C 135.50754000000003 172.02759000000003 135.98374 171.70509 136.48124 171.4051 L 138.53994 170.16761 L 143.05495 167.31893 L 143.06744999999998 167.44763 L 146.68865999999997 165.27144 C 156.41367999999997 159.42778 169.03369999999998 162.57526000000001 174.87740999999997 172.30009 L 197.14744999999996 209.36483 C 203.54245999999998 220.00726 200.09865999999997 233.81836 189.45623999999995 240.21212000000003 L 185.84002999999996 242.38581000000002 C 184.86632999999995 243.11950000000002 183.32632999999996 244.1433 181.15501999999995 245.20079 L 180.91001999999995 245.34829000000002 L 180.91001999999995 245.34829000000002 C 179.25751999999994 246.34078000000002 177.50130999999993 247.00578000000002 175.71380999999994 247.36448000000001 C 165.66758999999993 250.57946 148.39625999999993 252.30445 121.58000999999993 243.7495 C 92.35745999999993 234.42706 61.18499999999993 198.49731000000003 41.16625999999994 171.6413 L 41.098759999999935 171.69 C 40.875059999999934 171.3438 40.65125999999994 170.9963 40.42505999999994 170.64500999999998 C 39.740059999999936 169.72132 39.067559999999936 168.80751999999998 38.41005999999994 167.90752999999998 L 38.60125999999994 167.78382999999997 C 20.70252999999994 139.47032999999996 -1.671210000000059 97.49180999999997 0.0987899999999371 66.86702999999997 C 1.723789999999937 38.76601999999997 9.522509999999937 23.261129999999973 16.12501999999994 15.033689999999972 C 17.10001999999994 13.492499999999971 18.351219999999937 12.091209999999972 19.87002999999994 10.905019999999972 L 19.87002999999994 10.905019999999972 L 20.09502999999994 10.728819999999972 C 21.861229999999942 9.080129999999972 23.36753999999994 8.008839999999973 24.40253999999994 7.363839999999972 L 27.72754999999994 4.766359999999972 C 37.51126999999994 -2.877290000000028 51.63878999999994 -1.142300000000028 59.28260999999994 8.641329999999972 L 85.90385999999994 42.71609999999997 C 92.88886999999994 51.65603999999997 91.30386999999993 64.56594999999997 82.36384999999994 71.55089999999997 L 79.03513999999994 74.15207999999997 z" stroke-linecap="round" />
</g>
</svg>